<svg xmlns="http://www.w3.org/2000/svg" width="35" height="30" viewBox="0 0 35 30">
  <g id="burger" transform="translate(0)">
    <path id="Path_6" user-name="Path 6" d="M35,15.879V15A13.911,13.911,0,0,0,29.86,4.405,18.938,18.938,0,0,0,17.5,0,18.938,18.938,0,0,0,5.14,4.405,13.911,13.911,0,0,0,0,15v.879H2.051v1.909A2.7,2.7,0,0,0,0,20.273a2.7,2.7,0,0,0,2.051,2.486v1.909H0v.879C0,28,2.331,30,5.2,30H29.8c2.865,0,5.2-2,5.2-4.453v-.879H32.949V22.759A2.7,2.7,0,0,0,35,20.273a2.7,2.7,0,0,0-2.051-2.486V15.879ZM17.5,1.758A16.639,16.639,0,0,1,29.006,6.173,16.6,16.6,0,0,1,17.5,10.605,16.6,16.6,0,0,1,5.994,6.173,16.639,16.639,0,0,1,17.5,1.758ZM4.713,7.577A18.86,18.86,0,0,0,17.5,12.363,18.86,18.86,0,0,0,30.287,7.577a11.991,11.991,0,0,1,2.629,6.544H2.084A11.991,11.991,0,0,1,4.713,7.577ZM3.076,19.395H7.54a3.336,3.336,0,0,1,2.166.765l1.168.993h-7.8a.889.889,0,1,1,0-1.758ZM4.1,22.91h8.84l2.068,1.758H4.1Zm25.7,5.332H5.2a3.153,3.153,0,0,1-2.973-1.816H32.778A3.153,3.153,0,0,1,29.8,28.242ZM19.99,24.668l2.068-1.758H30.9v1.758Zm11.934-3.516h-7.8l1.168-.993a3.335,3.335,0,0,1,2.166-.765h4.463a.889.889,0,1,1,0,1.758ZM30.9,17.637H27.46a5.559,5.559,0,0,0-3.61,1.274l-6.35,5.4-6.35-5.4a5.559,5.559,0,0,0-3.61-1.274H4.1V15.879H30.9Z" transform="translate(0 0)"/>
  </g>
</svg>
