<svg width="30" height="30" viewBox="0 0 30 30" fill="none" xmlns="http://www.w3.org/2000/svg">
<path fill-rule="evenodd" clip-rule="evenodd" d="M22.3917 8.8782C22.7822 8.48767 22.7822 7.85451 22.3917 7.46398C22.0012 7.07346 21.368 7.07346 20.9775 7.46398L14.9277 13.5137L8.87797 7.46398C8.48745 7.07345 7.85428 7.07345 7.46376 7.46398C7.07323 7.8545 7.07323 8.48766 7.46376 8.87819L13.5135 14.928L7.46376 20.9777C7.07323 21.3683 7.07323 22.0014 7.46376 22.3919C7.85428 22.7825 8.48745 22.7825 8.87797 22.3919L14.9277 16.3422L20.9775 22.3919C21.368 22.7825 22.0012 22.7825 22.3917 22.3919C22.7822 22.0014 22.7822 21.3682 22.3917 20.9777L16.342 14.928L22.3917 8.8782Z" fill="black"/>
</svg>
