<svg xmlns="http://www.w3.org/2000/svg" width="25" height="25" viewBox="0 0 25 25">
  <path id="exit" d="M15.665,18.164h1.952v3.906A2.932,2.932,0,0,1,14.689,25H2.928A2.932,2.932,0,0,1,0,22.071V2.93A2.932,2.932,0,0,1,2.928,0H14.689a2.932,2.932,0,0,1,2.928,2.93V6.836H15.665V2.93a.977.977,0,0,0-.976-.977H2.928a.977.977,0,0,0-.976.977V22.071a.977.977,0,0,0,.976.977H14.689a.977.977,0,0,0,.976-.977ZM20.4,7.9l-1.38,1.381,2.245,2.246H8.638v1.953H21.263l-2.245,2.246L20.4,17.1,25,12.5Zm0,0" transform="translate(0 0)"/>
</svg>
