<svg xmlns="http://www.w3.org/2000/svg" width="28.707" height="28.707" viewBox="0 0 28.707 28.707">
  <g id="stock-white" transform="translate(-0.646 -0.646)">
    <path id="Path_3" user-name="Path 3" d="M29.354,2.027,2.027,29.354l-1.38-1.38L27.973.646Z" transform="translate(0)" fill-rule="evenodd"/>
    <path id="Path_4" user-name="Path 4" d="M6,10A4,4,0,1,0,2,6,4,4,0,0,0,6,10Zm0,2A6,6,0,1,0,0,6,6,6,0,0,0,6,12Z" transform="translate(1 1)" fill-rule="evenodd"/>
    <path id="Path_5" user-name="Path 5" d="M16,20a4,4,0,1,0-4-4A4,4,0,0,0,16,20Zm0,2a6,6,0,1,0-6-6A6,6,0,0,0,16,22Z" transform="translate(7 7)" fill-rule="evenodd"/>
  </g>
</svg>
